<svg width="147" height="36" viewBox="0 0 147 36" fill="none" xmlns="http://www.w3.org/2000/svg">
<path d="M20.3487 16.3698C19.9697 16.7511 19.6795 17.2113 19.4987 17.7175C19.3179 18.2238 19.251 18.7637 19.3027 19.2988L19.2847 19.2808C19.3379 19.9107 19.2529 20.5445 19.0358 21.1382C18.8187 21.7318 18.4747 22.2709 18.0278 22.7179C17.5808 23.1648 17.0417 23.5089 16.448 23.7259C15.8544 23.943 15.2205 24.028 14.5907 23.9748L14.6087 23.9928C13.8553 23.9227 13.0986 24.0866 12.4417 24.4623C11.7849 24.838 11.2599 25.4071 10.9384 26.0921C10.6169 26.7771 10.5144 27.5445 10.645 28.2899C10.7757 29.0352 11.133 29.7221 11.6683 30.2569C12.2036 30.7917 12.8908 31.1484 13.6362 31.2783C14.3817 31.4083 15.149 31.3051 15.8337 30.983C16.5184 30.6608 17.087 30.1354 17.4621 29.4782C17.8372 28.821 18.0005 28.0642 17.9297 27.3108L17.9487 27.3288C17.8955 26.699 17.9804 26.0651 18.1975 25.4714C18.4146 24.8778 18.7587 24.3387 19.2056 23.8917C19.6526 23.4448 20.1917 23.1007 20.7853 22.8837C21.379 22.6666 22.0128 22.5816 22.6427 22.6348L22.6237 22.6168C23.2391 22.6721 23.8586 22.5712 24.4247 22.3234C24.9907 22.0756 25.4851 21.6889 25.8619 21.1992C26.2387 20.7095 26.4859 20.1325 26.5803 19.5219C26.6748 18.9112 26.6136 18.2866 26.4024 17.7058C26.1912 17.1251 25.8368 16.6071 25.3721 16.1998C24.9074 15.7925 24.3474 15.5091 23.744 15.3759C23.1406 15.2427 22.5133 15.2639 21.9203 15.4376C21.3273 15.6114 20.7878 15.932 20.3517 16.3698H20.3487Z" fill="black"/>
<path d="M12.9718 21.6348L12.9528 21.6168C13.4881 21.6707 14.0287 21.605 14.5356 21.4244C15.0424 21.2438 15.5028 20.9529 15.8834 20.5726C16.2639 20.1923 16.5553 19.7321 16.7362 19.2254C16.9172 18.7187 16.9833 18.1782 16.9298 17.6428L16.9488 17.6608C16.8956 17.0309 16.9806 16.3971 17.1976 15.8034C17.4147 15.2098 17.7588 14.6707 18.2057 14.2237C18.6527 13.7768 19.1918 13.4327 19.7854 13.2157C20.3791 12.9985 21.0129 12.9136 21.6428 12.9668L21.6238 12.9488C22.3773 13.0196 23.1342 12.8561 23.7914 12.4809C24.4487 12.1056 24.9741 11.5367 25.2961 10.8519C25.6181 10.167 25.721 9.39949 25.5908 8.65398C25.4606 7.90847 25.1036 7.22129 24.5684 6.68615C24.0333 6.15102 23.3461 5.79398 22.6006 5.66376C21.8551 5.53353 21.0876 5.63644 20.4027 5.95846C19.7178 6.28047 19.149 6.80592 18.7737 7.46313C18.3984 8.12033 18.235 8.8773 18.3058 9.63078L18.2878 9.61178C18.3411 10.2417 18.2563 10.8756 18.0393 11.4693C17.8223 12.063 17.4782 12.6022 17.0313 13.0493C16.5843 13.4962 16.0451 13.8403 15.4514 14.0573C14.8576 14.2743 14.2237 14.3591 13.5938 14.3058L13.6118 14.3248C13.0765 14.2709 12.5358 14.3366 12.029 14.5172C11.5222 14.6977 11.0618 14.9887 10.6812 15.369C10.3006 15.7493 10.0093 16.2095 9.82834 16.7162C9.64744 17.2229 9.58134 17.7634 9.63484 18.2988L9.61684 18.2808C9.66984 18.9106 9.58474 19.5444 9.36764 20.138C9.15044 20.7315 8.80644 21.2706 8.35954 21.7175C7.9126 22.1644 7.37356 22.5084 6.78 22.7256C6.18644 22.9427 5.55265 23.0278 4.92284 22.9748L4.94084 22.9928C4.18736 22.922 3.43039 23.0854 2.77318 23.4607C2.11598 23.836 1.59053 24.4048 1.26852 25.0897C0.946502 25.7746 0.843582 26.5421 0.973812 27.2876C1.10404 28.0331 1.46108 28.7203 1.99621 29.2554C2.53135 29.7906 3.21853 30.1476 3.96404 30.2778C4.70955 30.408 5.47708 30.3051 6.16195 29.9831C6.84681 29.6611 7.41568 29.1357 7.79094 28.4785C8.16624 27.8212 8.32964 27.0643 8.25884 26.3108L8.27784 26.3288C8.22464 25.6989 8.30964 25.0651 8.52674 24.4714C8.74374 23.8778 9.08784 23.3387 9.53474 22.8917C9.98174 22.4448 10.5208 22.1007 11.1144 21.8837C11.7081 21.6666 12.3419 21.5816 12.9718 21.6348Z" fill="black"/>
<path d="M6.2699 19.6278C6.64892 19.2466 6.9391 18.7864 7.11974 18.2801C7.30038 17.7738 7.36702 17.2338 7.3149 16.6988L7.33389 16.7168C7.28069 16.0868 7.36565 15.4527 7.58286 14.8589C7.80007 14.2651 8.1443 13.7259 8.5915 13.2789C9.0387 12.832 9.578 12.488 10.1719 12.271C10.7658 12.0541 11.3999 11.9694 12.0299 12.0228L12.0109 12.0048C12.7641 12.0754 13.5208 11.9119 14.1777 11.5367C14.8346 11.1615 15.3597 10.5927 15.6816 9.90807C16.0034 9.22341 16.1062 8.45616 15.976 7.71093C15.8458 6.9657 15.4888 6.27878 14.9539 5.74384C14.419 5.2089 13.732 4.85198 12.9868 4.72176C12.2416 4.59153 11.4743 4.69435 10.7897 5.01617C10.105 5.33799 9.5363 5.86316 9.1611 6.52006C8.7858 7.17696 8.6223 7.93362 8.6929 8.68684L8.6749 8.66884C8.7281 9.29869 8.6431 9.93256 8.426 10.5262C8.2089 11.1198 7.86492 11.659 7.41796 12.1059C6.97101 12.5529 6.43189 12.8969 5.83825 13.1139C5.24461 13.331 4.61075 13.416 3.9809 13.3628L3.9989 13.3808C3.38347 13.3256 2.76406 13.4267 2.19808 13.6746C1.6321 13.9225 1.13785 14.3093 0.761139 14.7991C0.384429 15.2888 0.137449 15.8658 0.0430689 16.4764C-0.0513011 17.0871 0.0099889 17.7117 0.221259 18.2923C0.432529 18.873 0.786959 19.3909 1.25169 19.7981C1.71642 20.2054 2.27642 20.4887 2.8798 20.6219C3.48317 20.755 4.1104 20.7337 4.70337 20.56C5.29633 20.3862 5.83583 20.0656 6.27189 19.6278H6.2699Z" fill="black"/>
<path d="M42.751 27.288C41.471 27.288 40.287 27.056 39.199 26.592C38.127 26.128 37.183 25.48 36.367 24.648C35.567 23.816 34.943 22.84 34.495 21.72C34.047 20.6 33.823 19.376 33.823 18.048C33.823 16.72 34.039 15.496 34.471 14.376C34.919 13.24 35.543 12.264 36.343 11.448C37.159 10.616 38.111 9.976 39.199 9.528C40.287 9.064 41.471 8.832 42.751 8.832C44.031 8.832 45.175 9.048 46.183 9.48C47.207 9.912 48.071 10.488 48.775 11.208C49.479 11.912 49.983 12.688 50.287 13.536L47.359 14.904C47.023 14.008 46.455 13.272 45.655 12.696C44.855 12.104 43.887 11.808 42.751 11.808C41.631 11.808 40.639 12.072 39.775 12.6C38.927 13.128 38.263 13.856 37.783 14.784C37.319 15.712 37.087 16.8 37.087 18.048C37.087 19.296 37.319 20.392 37.783 21.336C38.263 22.264 38.927 22.992 39.775 23.52C40.639 24.048 41.631 24.312 42.751 24.312C43.887 24.312 44.855 24.024 45.655 23.448C46.455 22.856 47.023 22.112 47.359 21.216L50.287 22.584C49.983 23.432 49.479 24.216 48.775 24.936C48.071 25.64 47.207 26.208 46.183 26.64C45.175 27.072 44.031 27.288 42.751 27.288ZM58.8226 27.288C57.5426 27.288 56.3746 26.992 55.3186 26.4C54.2786 25.808 53.4466 25 52.8226 23.976C52.2146 22.952 51.9106 21.784 51.9106 20.472C51.9106 19.16 52.2146 17.992 52.8226 16.968C53.4466 15.944 54.2786 15.136 55.3186 14.544C56.3586 13.952 57.5266 13.656 58.8226 13.656C60.1026 13.656 61.2626 13.952 62.3026 14.544C63.3426 15.136 64.1666 15.944 64.7746 16.968C65.3986 17.976 65.7106 19.144 65.7106 20.472C65.7106 21.784 65.3986 22.952 64.7746 23.976C64.1506 25 63.3186 25.808 62.2786 26.4C61.2386 26.992 60.0866 27.288 58.8226 27.288ZM58.8226 24.408C59.5266 24.408 60.1426 24.24 60.6706 23.904C61.2146 23.568 61.6386 23.104 61.9426 22.512C62.2626 21.904 62.4226 21.224 62.4226 20.472C62.4226 19.704 62.2626 19.032 61.9426 18.456C61.6386 17.864 61.2146 17.4 60.6706 17.064C60.1426 16.712 59.5266 16.536 58.8226 16.536C58.1026 16.536 57.4706 16.712 56.9266 17.064C56.3826 17.4 55.9506 17.864 55.6306 18.456C55.3266 19.032 55.1746 19.704 55.1746 20.472C55.1746 21.224 55.3266 21.904 55.6306 22.512C55.9506 23.104 56.3826 23.568 56.9266 23.904C57.4706 24.24 58.1026 24.408 58.8226 24.408ZM68.0949 27V13.944H71.0469V16.848L70.8069 16.416C71.1109 15.44 71.5829 14.76 72.2229 14.376C72.8789 13.992 73.6629 13.8 74.5749 13.8H75.3429V16.584H74.2149C73.3189 16.584 72.5989 16.864 72.0549 17.424C71.5109 17.968 71.2389 18.736 71.2389 19.728V27H68.0949ZM77.0714 31.8V13.944H80.0234V16.536L79.7354 15.888C80.1834 15.184 80.7914 14.64 81.5594 14.256C82.3274 13.856 83.2154 13.656 84.2234 13.656C85.4554 13.656 86.5674 13.96 87.5594 14.568C88.5514 15.176 89.3354 15.992 89.9114 17.016C90.5034 18.04 90.7994 19.192 90.7994 20.472C90.7994 21.736 90.5114 22.888 89.9354 23.928C89.3594 24.968 88.5754 25.792 87.5834 26.4C86.5914 26.992 85.4634 27.288 84.1994 27.288C83.2554 27.288 82.3834 27.104 81.5834 26.736C80.7994 26.352 80.1754 25.808 79.7114 25.104L80.2154 24.48V31.8H77.0714ZM83.8394 24.408C84.5594 24.408 85.1994 24.24 85.7594 23.904C86.3194 23.568 86.7514 23.104 87.0554 22.512C87.3754 21.92 87.5354 21.24 87.5354 20.472C87.5354 19.704 87.3754 19.032 87.0554 18.456C86.7514 17.864 86.3194 17.4 85.7594 17.064C85.1994 16.712 84.5594 16.536 83.8394 16.536C83.1514 16.536 82.5274 16.704 81.9674 17.04C81.4234 17.376 80.9914 17.848 80.6714 18.456C80.3674 19.048 80.2154 19.72 80.2154 20.472C80.2154 21.24 80.3674 21.92 80.6714 22.512C80.9914 23.104 81.4234 23.568 81.9674 23.904C82.5274 24.24 83.1514 24.408 83.8394 24.408ZM91.9964 27L97.8524 18L92.0444 9.12H95.7884L100.54 16.392H98.8124L103.54 9.12H107.284L101.5 18L107.332 27H103.588L98.8124 19.632H100.54L95.7404 27H91.9964Z" fill="black"/>
</svg>
