<svg width="28" height="109" viewBox="0 0 28 109" fill="none" xmlns="http://www.w3.org/2000/svg">
<path d="M12.1818 87.796C12.5631 88.175 13.0233 88.4652 13.5295 88.646C14.0358 88.8268 14.5757 88.8937 15.1108 88.842L15.0928 88.86C15.7227 88.8068 16.3565 88.8918 16.9502 89.1089C17.5438 89.326 18.0829 89.67 18.5299 90.1169C18.9768 90.5639 19.3209 91.103 19.5379 91.6967C19.755 92.2903 19.84 92.9242 19.7868 93.554L19.8048 93.536C19.7347 94.2894 19.8986 95.0461 20.2743 95.703C20.65 96.3598 21.2191 96.8848 21.9041 97.2063C22.5891 97.5278 23.3565 97.6303 24.1019 97.4997C24.8472 97.369 25.5341 97.0117 26.0689 96.4764C26.6037 95.9411 26.9604 95.2539 27.0903 94.5085C27.2203 93.763 27.1171 92.9957 26.795 92.311C26.4728 91.6263 25.9474 91.0577 25.2902 90.6826C24.633 90.3075 23.8762 90.1442 23.1228 90.215L23.1408 90.196C22.511 90.2492 21.8771 90.1643 21.2834 89.9472C20.6898 89.7301 20.1507 89.386 19.7037 88.9391C19.2568 88.4921 18.9127 87.953 18.6957 87.3594C18.4786 86.7657 18.3936 86.1319 18.4468 85.502L18.4288 85.521C18.4841 84.9056 18.3832 84.2861 18.1354 83.72C17.8876 83.154 17.5009 82.6596 17.0112 82.2828C16.5215 81.906 15.9445 81.6588 15.3339 81.5644C14.7232 81.4699 14.0986 81.5311 13.5178 81.7423C12.9371 81.9535 12.4191 82.3079 12.0118 82.7726C11.6045 83.2373 11.3211 83.7973 11.1879 84.4007C11.0547 85.0041 11.0759 85.6314 11.2496 86.2244C11.4234 86.8174 11.744 87.3569 12.1818 87.793V87.796Z" fill="white"/>
<path d="M17.4468 95.1729L17.4288 95.1919C17.4827 94.6566 17.417 94.116 17.2364 93.6091C17.0558 93.1023 16.7649 92.6419 16.3846 92.2613C16.0043 91.8808 15.5441 91.5894 15.0374 91.4085C14.5307 91.2275 13.9902 91.1614 13.4548 91.2149L13.4728 91.1959C12.8429 91.2491 12.2091 91.1641 11.6154 90.9471C11.0218 90.73 10.4827 90.3859 10.0357 89.939C9.58879 89.492 9.24469 88.9529 9.02769 88.3593C8.81055 87.7656 8.72562 87.1318 8.77879 86.5019L8.76079 86.5209C8.83159 85.7674 8.66815 85.0105 8.29289 84.3533C7.91763 83.696 7.34876 83.1706 6.66389 82.8486C5.97903 82.5266 5.2115 82.4237 4.46599 82.5539C3.72048 82.6841 3.0333 83.0411 2.49816 83.5763C1.96303 84.1114 1.60599 84.7986 1.47577 85.5441C1.34554 86.2896 1.44845 87.0571 1.77047 87.742C2.09248 88.4269 2.61793 88.9957 3.27514 89.371C3.93234 89.7463 4.68931 89.9097 5.44279 89.8389L5.42379 89.8569C6.05368 89.8036 6.68762 89.8884 7.28134 90.1054C7.87506 90.3224 8.41425 90.6665 8.86129 91.1134C9.30819 91.5604 9.65229 92.0996 9.86929 92.6933C10.0863 93.2871 10.1711 93.921 10.1178 94.5509L10.1368 94.5329C10.0829 95.0682 10.1486 95.6089 10.3292 96.1157C10.5097 96.6225 10.8007 97.0829 11.181 97.4635C11.5613 97.8441 12.0215 98.1354 12.5282 98.3164C13.0349 98.4973 13.5754 98.5634 14.1108 98.5099L14.0928 98.5279C14.7226 98.4749 15.3564 98.56 15.95 98.7771C16.5435 98.9943 17.0826 99.3383 17.5295 99.7852C17.9764 100.232 18.3204 100.771 18.5376 101.365C18.7547 101.958 18.8398 102.592 18.7868 103.222L18.8048 103.204C18.734 103.957 18.8974 104.714 19.2727 105.372C19.648 106.029 20.2168 106.554 20.9017 106.876C21.5866 107.198 22.3541 107.301 23.0996 107.171C23.8451 107.041 24.5323 106.684 25.0674 106.149C25.6026 105.613 25.9596 104.926 26.0898 104.181C26.22 103.435 26.1171 102.668 25.7951 101.983C25.4731 101.298 24.9477 100.729 24.2905 100.354C23.6332 99.9785 22.8763 99.8151 22.1228 99.8859L22.1408 99.8669C21.5109 99.9201 20.8771 99.8351 20.2834 99.618C19.6898 99.401 19.1507 99.0569 18.7037 98.61C18.2568 98.163 17.9127 97.6239 17.6957 97.0303C17.4786 96.4366 17.3936 95.8028 17.4468 95.1729Z" fill="white"/>
<path d="M15.4395 101.875C15.0583 101.496 14.5981 101.206 14.0918 101.025C13.5855 100.844 13.0455 100.778 12.5105 100.83L12.5285 100.811C11.8985 100.864 11.2644 100.779 10.6706 100.562C10.0768 100.345 9.53759 100 9.09059 99.5533C8.64361 99.1061 8.29962 98.5668 8.08267 97.9729C7.86571 97.379 7.78101 96.7449 7.83449 96.1149L7.81649 96.1339C7.88706 95.3807 7.72357 94.624 7.34833 93.9671C6.9731 93.3102 6.40437 92.7851 5.71972 92.4632C5.03506 92.1414 4.26781 92.0386 3.52258 92.1688C2.77735 92.299 2.09043 92.656 1.55549 93.1909C1.02055 93.7258 0.663626 94.4128 0.533406 95.158C0.403176 95.9032 0.505996 96.6705 0.827816 97.3551C1.14964 98.0398 1.67481 98.6085 2.33171 98.9837C2.98861 99.359 3.74527 99.5225 4.49849 99.4519L4.48049 99.4699C5.11034 99.4167 5.74421 99.5017 6.33785 99.7188C6.93149 99.9359 7.4706 100.28 7.91756 100.727C8.36452 101.174 8.70855 101.713 8.92559 102.307C9.14269 102.9 9.22769 103.534 9.17449 104.164L9.19249 104.146C9.13729 104.761 9.23839 105.381 9.48629 105.947C9.73419 106.513 10.121 107.007 10.6108 107.384C11.1005 107.76 11.6775 108.007 12.2881 108.102C12.8988 108.196 13.5234 108.135 14.104 107.924C14.6847 107.712 15.2026 107.358 15.6098 106.893C16.0171 106.428 16.3004 105.868 16.4336 105.265C16.5667 104.662 16.5454 104.034 16.3717 103.441C16.1979 102.848 15.8773 102.309 15.4395 101.873V101.875Z" fill="white"/>
<path d="M23.0995 65.3932C23.0995 66.6732 22.8675 67.8572 22.4035 68.9452C21.9395 70.0172 21.2915 70.9612 20.4595 71.7772C19.6275 72.5772 18.6515 73.2012 17.5315 73.6492C16.4115 74.0972 15.1875 74.3212 13.8595 74.3212C12.5315 74.3212 11.3075 74.1052 10.1875 73.6732C9.05152 73.2252 8.07552 72.6012 7.25952 71.8012C6.42752 70.9852 5.78752 70.0332 5.33952 68.9452C4.87552 67.8572 4.64352 66.6732 4.64352 65.3932C4.64352 64.1132 4.85952 62.9692 5.29152 61.9612C5.72352 60.9372 6.29952 60.0732 7.01952 59.3692C7.72352 58.6652 8.49952 58.1612 9.34752 57.8572L10.7155 60.7852C9.81952 61.1212 9.08352 61.6892 8.50752 62.4892C7.91552 63.2892 7.61952 64.2572 7.61952 65.3932C7.61952 66.5132 7.88352 67.5052 8.41152 68.3692C8.93952 69.2172 9.66752 69.8812 10.5955 70.3612C11.5235 70.8252 12.6115 71.0572 13.8595 71.0572C15.1075 71.0572 16.2035 70.8252 17.1475 70.3612C18.0755 69.8812 18.8035 69.2172 19.3315 68.3692C19.8595 67.5052 20.1235 66.5132 20.1235 65.3932C20.1235 64.2572 19.8355 63.2892 19.2595 62.4892C18.6675 61.6892 17.9235 61.1212 17.0275 60.7852L18.3955 57.8572C19.2435 58.1612 20.0275 58.6652 20.7475 59.3692C21.4515 60.0732 22.0195 60.9372 22.4515 61.9612C22.8835 62.9692 23.0995 64.1132 23.0995 65.3932ZM23.0995 49.3217C23.0995 50.6017 22.8035 51.7697 22.2115 52.8257C21.6195 53.8657 20.8115 54.6977 19.7875 55.3217C18.7635 55.9297 17.5955 56.2337 16.2835 56.2337C14.9715 56.2337 13.8035 55.9297 12.7795 55.3217C11.7555 54.6977 10.9475 53.8657 10.3555 52.8257C9.76352 51.7857 9.46752 50.6177 9.46752 49.3217C9.46752 48.0417 9.76352 46.8817 10.3555 45.8417C10.9475 44.8017 11.7555 43.9777 12.7795 43.3697C13.7875 42.7457 14.9555 42.4337 16.2835 42.4337C17.5955 42.4337 18.7635 42.7457 19.7875 43.3697C20.8115 43.9937 21.6195 44.8257 22.2115 45.8657C22.8035 46.9057 23.0995 48.0577 23.0995 49.3217ZM20.2195 49.3217C20.2195 48.6177 20.0515 48.0017 19.7155 47.4737C19.3795 46.9297 18.9155 46.5057 18.3235 46.2017C17.7155 45.8817 17.0355 45.7217 16.2835 45.7217C15.5155 45.7217 14.8435 45.8817 14.2675 46.2017C13.6755 46.5057 13.2115 46.9297 12.8755 47.4737C12.5235 48.0017 12.3475 48.6177 12.3475 49.3217C12.3475 50.0417 12.5235 50.6737 12.8755 51.2177C13.2115 51.7617 13.6755 52.1937 14.2675 52.5137C14.8435 52.8177 15.5155 52.9697 16.2835 52.9697C17.0355 52.9697 17.7155 52.8177 18.3235 52.5137C18.9155 52.1937 19.3795 51.7617 19.7155 51.2177C20.0515 50.6737 20.2195 50.0417 20.2195 49.3217ZM22.8115 40.0494H9.75552L9.75552 37.0974H12.6595L12.2275 37.3374C11.2515 37.0334 10.5715 36.5614 10.1875 35.9214C9.80352 35.2654 9.61152 34.4814 9.61152 33.5694V32.8014H12.3955V33.9294C12.3955 34.8254 12.6755 35.5454 13.2355 36.0894C13.7795 36.6334 14.5475 36.9054 15.5395 36.9054H22.8115V40.0494ZM27.6115 31.0729H9.75552V28.1209H12.3475L11.6995 28.4089C10.9955 27.9609 10.4515 27.3529 10.0675 26.5849C9.66752 25.8169 9.46752 24.9289 9.46752 23.9209C9.46752 22.6889 9.77152 21.5769 10.3795 20.5849C10.9875 19.5929 11.8035 18.8089 12.8275 18.2329C13.8515 17.6409 15.0035 17.3449 16.2835 17.3449C17.5475 17.3449 18.6995 17.6329 19.7395 18.2089C20.7795 18.7849 21.6035 19.5689 22.2115 20.5609C22.8035 21.5529 23.0995 22.6809 23.0995 23.9449C23.0995 24.8889 22.9155 25.7609 22.5475 26.5609C22.1635 27.3449 21.6195 27.9689 20.9155 28.4329L20.2915 27.9289H27.6115V31.0729ZM20.2195 24.3049C20.2195 23.5849 20.0515 22.9449 19.7155 22.3849C19.3795 21.8249 18.9155 21.3929 18.3235 21.0889C17.7315 20.7689 17.0515 20.6089 16.2835 20.6089C15.5155 20.6089 14.8435 20.7689 14.2675 21.0889C13.6755 21.3929 13.2115 21.8249 12.8755 22.3849C12.5235 22.9449 12.3475 23.5849 12.3475 24.3049C12.3475 24.9929 12.5155 25.6169 12.8515 26.1769C13.1875 26.7209 13.6595 27.1529 14.2675 27.4729C14.8595 27.7769 15.5315 27.9289 16.2835 27.9289C17.0515 27.9289 17.7315 27.7769 18.3235 27.4729C18.9155 27.1529 19.3795 26.7209 19.7155 26.1769C20.0515 25.6169 20.2195 24.9929 20.2195 24.3049ZM22.8115 16.1479L13.8115 10.2919L4.93152 16.0999V12.3559L12.2035 7.60386V9.33186L4.93152 4.60386V0.859865L13.8115 6.64387L22.8115 0.811864V4.55586L15.4435 9.33186V7.60386L22.8115 12.4039V16.1479Z" fill="white"/>
</svg>
