<?xml version="1.0" encoding="UTF-8" standalone="no"?>
<!-- Created with Inkscape (http://www.inkscape.org/) -->

<svg
   width="7.8924527mm"
   height="7.1468692mm"
   viewBox="0 0 7.8924527 7.1468692"
   version="1.1"
   id="svg1"
   xml:space="preserve"
   inkscape:version="1.3.2 (091e20e, 2023-11-25, custom)"
   sodipodi:docname="header-logo.svg"
   inkscape:export-filename="header-logo.svg"
   inkscape:export-xdpi="96"
   inkscape:export-ydpi="96"
   xmlns:inkscape="http://www.inkscape.org/namespaces/inkscape"
   xmlns:sodipodi="http://sodipodi.sourceforge.net/DTD/sodipodi-0.dtd"
   xmlns="http://www.w3.org/2000/svg"
   xmlns:svg="http://www.w3.org/2000/svg"><sodipodi:namedview
     id="namedview1"
     pagecolor="#505050"
     bordercolor="#eeeeee"
     borderopacity="1"
     inkscape:showpageshadow="0"
     inkscape:pageopacity="0"
     inkscape:pagecheckerboard="0"
     inkscape:deskcolor="#505050"
     inkscape:document-units="mm"
     inkscape:zoom="0.52248525"
     inkscape:cx="578.00675"
     inkscape:cy="345.4643"
     inkscape:window-width="3440"
     inkscape:window-height="1369"
     inkscape:window-x="2552"
     inkscape:window-y="626"
     inkscape:window-maximized="1"
     inkscape:current-layer="layer1" /><defs
     id="defs1" /><g
     inkscape:label="Layer 1"
     inkscape:groupmode="layer"
     id="layer1"
     transform="translate(-90.78216,-19.883989)"><g
       id="g1"
       transform="matrix(0.00768373,0,0,0.00768373,90.795733,19.648284)"
       inkscape:export-filename="header-logo.svg"
       inkscape:export-xdpi="96"
       inkscape:export-ydpi="96"
       style="fill:#ffffff;fill-opacity:1"><path
         d="m 751,35 c 13.93403,3.83903 31.24896,3.567759 45.125,11.125 30.74967,9.608425 59.93959,27.290746 83.0625,50.5 22.89575,21.77499 43.76317,46.95798 55.8125,76.375 22.63916,-2.03248 44.55025,-12.77086 66.8518,-18.61262 14.0171,-7.61694 27.4458,-7.46001 22.4998,11.57551 -2.7905,26.62571 -38.194,35.86414 -53.19787,56.55577 -40.60066,36.98277 -76.60784,79.18194 -105.07946,126.13524 -14.58536,-1.9887 -29.82994,-23.78403 -47.15435,-29.82724 -19.59367,-11.55993 -39.66003,-22.1448 -61.07568,-29.91284 -21.61292,-9.10886 -44.31861,-17.24017 -67.3466,-23.90556 -21.4488,-4.98213 -41.41019,-11.51786 -63.1578,-14.76217 -24.85588,-4.55959 -49.31379,-9.28651 -74.11473,-11.69838 -19.45739,-7.87799 18.03176,-8.3193 25.83973,-9.55742 19.64151,-4.10813 38.40623,-6.3065 58.31971,-8.99031 16.44204,-0.38416 32.77261,-6.43226 49.72494,-6.56091 9.20269,-5.62147 32.3267,3.03965 17.99556,-12.28583 -19.74505,-29.76407 -54.61224,-46.17077 -88.72583,-51.28921 -19.56259,0.35878 -38.27402,-1.27893 -57.40282,1.38385 -17.79928,0.88587 -34.19401,3.99529 -51.11008,6.78086 -24.98041,7.92956 -50.40546,12.94369 -75.09679,22.522 -35.68263,14.37965 -71.14768,28.92901 -105.01172,47.11918 -52.57232,27.03321 -107.34436,56.33141 -141.81619,106.14771 -35.47199,46.34757 -58.5432,101.45486 -73.23385,157.46626 -5.29251,19.89707 -10.01695,39.66091 -13.70777,59.60066 -1.19423,9.60596 -5.33033,40.4246 5.1722,17.1835 42.29649,-75.13159 94.23058,-144.58251 150.42992,-209.87673 19.90049,-18.13189 33.14328,-44.39223 57.12114,-57.23691 25.17412,-11.33492 24.08988,24.97104 4.64659,32.84011 -68.77849,67.44764 -122.68304,148.13079 -174.77272,228.69698 -14.09457,19.38498 -22.65372,44.27626 -41.75012,59.16934 -32.77693,8.5031 -31.5256,-35.49985 -29.76706,-56.86614 2.14075,-19.35303 5.94673,-39.36616 8.8934,-58.94239 3.78174,-21.30095 10.22939,-41.55533 16.35532,-61.78014 5.66135,-21.72788 12.7216,-42.95218 21.04633,-63.75967 24.68989,-54.94012 64.32318,-102.33702 108.11185,-143.39894 77.98202,-68.75235 168.91402,-122.54906 265.78139,-159.883789 31.70079,-10.560755 63.47828,-23.696831 95.96661,-29.655967 14.08835,-6.326921 30.25388,-6.065437 44.14917,-9.335359 27.7096,-6.854429 57.1078,-5.362161 85.65996,-7.260306 C 727.87802,30.200871 739.56068,32.129861 751,35 Z m -41,-2 c 3.30704,0.82676 6.31613,1.579033 0,0 z M 71,571 c 1.21994,2.43989 1.00404,2.00809 0,0 z m 0,22 c 1.21994,2.43989 1.00404,2.00809 0,0 z"
         fill="#000000"
         id="path1"
         style="fill:#ffffff;fill-opacity:1" /><path
         d="m 863.4375,362.8125 c 13.54143,18.47008 -26.47447,38.16551 -19.65234,46.53125 16.2895,-5.15232 63.666,-7.06385 44.21484,20.65625 -22.05294,6.39295 -45.56304,8.31052 -67.68821,15.28526 -24.67791,11.66837 -33.87339,39.73205 -47.72976,61.31777 -9.5045,18.93097 -28.84876,52.35281 -11.10564,68.08481 27.82336,-2.43634 39.31347,-31.62972 55.47663,-50.77051 11.18326,-22.64862 39.29844,-3.95803 22.1544,15.60806 -17.62181,44.54788 -42.60019,86.50517 -73.19872,123.67409 -70.81464,89.37907 -159.26813,164.51588 -258.07667,221.31417 -21.36648,11.35527 -42.64096,22.4219 -64.96375,31.69424 -31.84221,12.81045 -65.06254,23.8586 -98.91857,29.18762 -35.00198,8.74331 -71.4278,4.17648 -106.68261,2.4648 -27.04968,-1.58897 -50.84944,-14.47182 -73.92306,-27.12579 C 135.41061,903.65597 112.39711,878.8599 97,850.00001 73.07296,865.56758 45.93343,875.94519 21.0271,890.02149 4.91717,892.0042 -2.84747,906.53858 0,920.00001 1.26853,898.37493 -6.05894,874.7805 2.30119,854.5556 31.54058,824.68041 54.6134,788.87251 75.4375,752.75001 c 12.90815,-23.77087 21.4266,-49.8316 31.00391,-74.88672 1.05709,-14.94247 8.93389,-34.3548 23.86718,-16.37109 27.48816,17.38874 59.04087,27.24783 90.76807,33.65405 22.32556,8.54429 46.79078,7.4097 69.92334,12.85376 25.54308,-0.34865 49.92951,4.8512 75.43356,2.32939 23.24129,1.90694 46.9341,-4.49632 67.56644,-1.94485 -15.61856,12.16456 -41.74796,18.45168 -62,26.61545 -33.55905,12.58092 -67.2185,25.8092 -102,35 11.5636,23.40147 38.05512,34.48813 61,44 22.28209,3.86326 46.57621,7.83164 67.93962,3.24389 25.9582,-3.55923 51.79863,-7.20476 76.13265,-17.40765 84.04881,-28.90776 156.83793,-83.53384 223.99279,-140.78083 15.57853,-13.42297 30.17042,-28.14902 45.2865,-43.27386 9.88027,-8.78795 17.26481,-16.55814 -1.09384,-15.18201 C 719.71318,595.07249 717.17261,563.52149 725,545.00033 c 4.77529,-28.91655 19.85892,-55.42141 34.08259,-80.8579 14.33124,-13.36085 -36.75557,-2.22742 -19.49483,-27.24808 8.93263,-8.01577 21.2927,-6.43986 31.72474,-8.83153 25.26625,1.44346 35.59106,-25.25464 51.12537,-41.0029 10.35698,-10.99573 22.48454,-35.30438 40.99963,-24.24742 z"
         fill="#000000"
         id="path2"
         style="fill:#ffffff;fill-opacity:1" /><path
         d="m 716.16797,283.27344 c 17.27913,16.47428 -12.2243,30.41921 -21.28855,42.87737 -10.01198,10.19868 -20.91531,23.81072 -30.74177,35.97711 -54.29476,68.18504 -97.23479,144.26939 -141.36104,219.14674 -9.51936,23.62899 -39.69495,61.35474 -65.01046,33.28138 -10.60614,-17.45357 -12.81064,-39.17832 -9.3498,-59.34788 -1.88482,-13.41596 12.8389,-46.38763 5.83693,-44.36363 -24.47327,34.47522 -49.19492,68.84038 -72.52075,104.15066 -11.15864,26.34328 -57.47876,20.69788 -47.60558,-11.87371 3.92632,-27.30975 12.75475,-53.65918 21.486,-79.92388 C 364.2205,502.45703 369.98843,479.89515 381,460 c 7.93175,-25.76564 22.25899,-49.13616 32.62158,-74.31543 10.95524,-21.55192 20.3058,-43.26138 30.64508,-65.15684 1.42795,-22.27331 42.05895,-44.62694 41.35429,-10.84329 -5.36063,25.28468 -22.22171,46.29007 -31.90004,70.00919 -19.61291,38.53563 -38.02494,77.76914 -54.88994,117.81627 -6.83397,20.82818 -16.70081,40.72237 -21.64172,62.3569 -3.13679,10.8037 -8.13665,24.69181 2.10312,8.41432 37.19377,-48.89358 72.05846,-99.52937 109.54708,-148.17565 5.82021,-19.48433 48.58885,-28.24355 36.13797,1.35539 -12.30187,22.87079 -21.15336,47.08315 -28.97254,71.81591 -5.37776,18.39276 -9.62419,37.89623 -13.00488,56.49233 -5.03083,13.22282 1.04609,50.3718 14.10163,21.84379 31.61467,-54.55475 60.5291,-110.77179 96.751,-162.56281 25.74995,-38.20215 53.16132,-76.0912 86.28409,-108.08523 7.85095,-9.44885 21.55539,-24.94408 36.03125,-17.69141 z M 459,502 c 1.21994,2.43989 1.00404,2.00809 0,0 z m -10,61 c 1.21994,2.43989 1.00404,2.00809 0,0 z m 0,15 c 1.21994,2.43989 1.00404,2.00809 0,0 z"
         fill="#000000"
         id="path3"
         style="fill:#ffffff;fill-opacity:1" /><path
         d="m 696.625,439.75 c 17.35432,-3.89719 35.05618,12.06394 28.93593,29.87432 3.52005,23.18523 -16.00936,40.27418 -23.09005,61.51006 -11.93629,20.54211 -14.96654,50.93147 11.88804,60.55865 11.14339,24.1399 -28.56081,23.61481 -37.95311,8.58074 -12.07805,-6.25354 -5.10822,-43.9149 -19.09616,-20.79223 -12.37987,19.45649 -44.19672,31.97164 -60.71644,10.70202 -14.26262,-21.17716 -4.19257,-48.66164 3.8079,-70.3477 15.58312,-30.41022 39.5009,-57.69762 69.14001,-75.02652 8.6156,-3.17816 17.88164,-6.06075 27.08388,-5.05934 z M 654,490 c -18.89456,19.03933 -32.38813,45.10753 -35.35179,71.43889 C 629.65327,587.25388 653.44312,551.35953 662,537.5 c 14.30066,-16.46683 19.92515,-35.59685 32.51536,-52.7287 15.57191,-26.62145 -32.1614,-13.90706 -38.462,3.15795 z m -36,72 c 1.21994,2.43989 1.00404,2.00809 0,0 z"
         fill="#000000"
         id="path4"
         style="fill:#ffffff;fill-opacity:1" /><path
         d="m 303.625,439.75 c 25.79514,-5.02324 32.74054,21.84994 28.375,40.25 -0.39779,16.52963 -14.35686,29.93188 -20.77309,45.12074 -9.31755,20.04901 -21.72131,53.72944 6.95932,63.37909 20.33764,20.58243 -19.65728,30.2897 -31.11027,14.59323 -17.01405,-5.73731 -7.72568,-50.35072 -23.96659,-20.7415 -12.09764,17.59454 -38.64606,26.10673 -55.9774,11.62687 -14.63405,-16.09809 -10.49053,-41.51248 -2.95169,-59.99355 C 209.64251,509.3863 226.97412,489.56017 243,471 c 12.47228,-13.48863 30.59333,-28.35476 50.55771,-31.2519 3.34054,-0.66812 6.71217,-0.0505 10.06729,0.002 z M 269,482 c -18.78623,18.27492 -35.3306,40.67456 -40,67 -11.41023,21.31697 16.64595,27.99284 27.09811,8.52133 18.56217,-21.65506 28.59469,-48.94424 44.48755,-72.20164 C 324.124,462.42912 275.00181,467.56987 269,482 Z"
         fill="#000000"
         id="path5"
         style="fill:#ffffff;fill-opacity:1" /><path
         d="m 267.4375,118.5 c 20.64801,9.64664 21.13001,40.69113 1.75782,52.03125 -18.56384,10.24184 -46.87704,-5.34685 -42.50782,-27.6543 -0.5864,-20.60175 23.47918,-31.74 40.75,-24.37695 z"
         fill="#000000"
         id="path6"
         style="fill:#ffffff;fill-opacity:1" /><path
         d="m 112.25,911.125 c 20.9724,16.82678 3.09231,53.91001 -22.917969,49.28516 C 65.109443,958.77139 55.687176,924.30524 74.872858,909.98092 85.127054,900.591 102.2486,902.09881 112.25,911.125 Z"
         fill="#000000"
         id="path7"
         style="fill:#ffffff;fill-opacity:1" /><path
         d="m 838.84766,726.37891 c 20.80342,11.63534 15.47233,50.27173 -9.76417,51.57838 -20.20594,6.91502 -40.83253,-17.79015 -31.80586,-37.34098 6.08107,-16.15553 26.77893,-23.64033 41.57003,-14.2374 z"
         fill="#000000"
         id="path8"
         style="fill:#ffffff;fill-opacity:1" /><path
         d="m 49.5,622.625 c 23.497563,9.87433 20.848705,49.44404 -5.387695,53.59815 C 23.818201,683.01161 4.281877,660.71959 10.597349,641.26337 15.522737,624.72754 33.255065,615.30566 49.5,622.625 Z"
         fill="#000000"
         id="path9"
         style="fill:#ffffff;fill-opacity:1" /><path
         d="m 996.3125,276.4375 c 19.0169,8.90994 21.359,37.21588 3.5625,48.4375 -18.28754,13.50671 -47.83691,-4.82923 -42.04076,-27.57616 2.01497,-16.51376 23.32554,-28.47234 38.47826,-20.86134 z"
         fill="#000000"
         id="path10"
         style="fill:#ffffff;fill-opacity:1" /><path
         d="m 412.375,231.625 c 25.68522,-2.53682 37.3316,35.69203 15.58984,49 -22.17004,16.59565 -52.7159,-10.75548 -40.13844,-34.9042 4.8319,-8.76934 14.25499,-15.0722 24.5486,-14.0958 z"
         fill="#000000"
         id="path11"
         style="fill:#ffffff;fill-opacity:1" /><path
         d="m 87.6875,283.125 c 24.59212,10.5166 -3.825155,46.47901 -19,24.25 -9.689512,-13.11265 3.423219,-31.56182 19,-24.25 z"
         fill="#000000"
         id="path12"
         style="fill:#ffffff;fill-opacity:1" /><path
         d="m 599.625,644.125 c 31.17672,17.45247 -21.36909,48.71883 -22.10254,13.61219 0.0911,-10.63645 12.49907,-18.00462 22.10254,-13.61219 z"
         fill="#000000"
         id="path13"
         style="fill:#ffffff;fill-opacity:1" /><path
         d="m 941.84375,73.082031 c 25.33276,18.393052 -20.09263,46.372739 -24.03471,14.730324 -2.06615,-12.162989 14.1558,-21.105094 24.03471,-14.730324 z"
         fill="#000000"
         id="path14"
         style="fill:#ffffff;fill-opacity:1" /><path
         d="m 717,836 c 26.93623,12.21469 -8.34094,49.13238 -20.29773,20.71209 C 692.07761,844.73023 704.76803,831.5688 717,836 Z"
         fill="#000000"
         id="path15"
         style="fill:#ffffff;fill-opacity:1" /><path
         d="M 18,360 C 46.409162,371.78653 5.687448,408.35274 -0.229637,378.59711 -2.578961,366.25699 4.049918,355.77449 18,360 Z"
         fill="#000000"
         id="path16"
         style="fill:#ffffff;fill-opacity:1" /><path
         d=""
         fill="#000000"
         id="path17"
         style="fill:#ffffff;fill-opacity:1" /><path
         d=""
         fill="#010001"
         id="path18"
         style="fill:#ffffff;fill-opacity:1" /><path
         d=""
         fill="#000100"
         id="path19"
         style="fill:#ffffff;fill-opacity:1" /><path
         d=""
         fill="#010001"
         id="path20"
         style="fill:#ffffff;fill-opacity:1" /><path
         d=""
         fill="#000000"
         id="path21"
         style="fill:#ffffff;fill-opacity:1" /><path
         d=""
         fill="#000000"
         id="path22"
         style="fill:#ffffff;fill-opacity:1" /><path
         d=""
         fill="#010001"
         id="path23"
         style="fill:#ffffff;fill-opacity:1" /><path
         d=""
         fill="#000000"
         id="path24"
         style="fill:#ffffff;fill-opacity:1" /><path
         d=""
         fill="#020002"
         id="path25"
         style="fill:#ffffff;fill-opacity:1" /></g></g></svg>
